<svg data-v-423bf9ae="" xmlns="http://www.w3.org/2000/svg" viewBox="0 0 394 103" class="iconLeft"><!----><!----><!----><g data-v-423bf9ae="" id="3220eea3-0e69-4303-a53d-3e3223fd30d2" fill="#000000" transform="matrix(5.366726150465578,0,0,5.366726150465578,117.7522905254032,6.780590755967459)"><path d="M2.21 13.80L2.21 13.80Q1.65 13.80 1.26 13.41L1.26 13.41L1.26 13.41Q0.87 13.02 0.87 12.46L0.87 12.46L0.87 4.35L0.87 4.35Q0.87 3.79 1.26 3.40L1.26 3.40L1.26 3.40Q1.65 3.01 2.21 3.01L2.21 3.01L2.21 3.01Q2.77 3.01 3.16 3.40L3.16 3.40L3.16 3.40Q3.56 3.79 3.56 4.35L3.56 4.35L3.56 7.20L7.42 7.20L7.42 4.35L7.42 4.35Q7.42 3.79 7.81 3.40L7.81 3.40L7.81 3.40Q8.20 3.01 8.76 3.01L8.76 3.01L8.76 3.01Q9.32 3.01 9.72 3.40L9.72 3.40L9.72 3.40Q10.11 3.79 10.11 4.35L10.11 4.35L10.11 12.46L10.11 12.46Q10.11 13.02 9.72 13.41L9.72 13.41L9.72 13.41Q9.32 13.80 8.76 13.80L8.76 13.80L8.76 13.80Q8.20 13.80 7.81 13.41L7.81 13.41L7.81 13.41Q7.42 13.02 7.42 12.46L7.42 12.46L7.42 9.38L3.56 9.38L3.56 12.46L3.56 12.46Q3.56 13.02 3.16 13.41L3.16 13.41L3.16 13.41Q2.77 13.80 2.21 13.80L2.21 13.80ZM13.71 13.87L13.71 13.87Q12.99 13.87 12.40 13.60L12.40 13.60L12.40 13.60Q11.80 13.33 11.45 12.80L11.45 12.80L11.45 12.80Q11.10 12.28 11.10 11.55L11.10 11.55L11.10 11.55Q11.10 10.07 12.22 9.57L12.22 9.57L12.22 9.57Q13.34 9.07 15.05 9.07L15.05 9.07L15.05 9.07Q15.37 9.07 15.53 9.09L15.53 9.09L16.00 9.10L16.00 9.10Q16.00 8.62 15.93 8.34L15.93 8.34L15.93 8.34Q15.86 8.05 15.63 7.88L15.63 7.88L15.63 7.88Q15.40 7.71 14.94 7.71L14.94 7.71L14.94 7.71Q14.29 7.71 13.99 8.12L13.99 8.12L13.99 8.12Q13.64 8.60 13.13 8.60L13.13 8.60L13.13 8.60Q12.67 8.60 12.34 8.27L12.34 8.27L12.34 8.27Q12.01 7.94 12.01 7.46L12.01 7.46L12.01 7.46Q12.01 7.18 12.14 6.94L12.14 6.94L12.14 6.94Q12.26 6.69 12.50 6.54L12.50 6.54L12.50 6.54Q13.02 6.20 13.66 6.03L13.66 6.03L13.66 6.03Q14.29 5.87 14.97 5.87L14.97 5.87L14.97 5.87Q16.70 5.87 17.61 6.61L17.61 6.61L17.61 6.61Q18.51 7.35 18.51 9.04L18.51 9.04L18.49 11.03L18.49 11.03Q18.49 11.55 18.51 11.80L18.51 11.80L18.52 12.59L18.52 12.59Q18.52 13.08 18.16 13.44L18.16 13.44L18.16 13.44Q17.81 13.80 17.30 13.80L17.30 13.80L17.30 13.80Q16.84 13.80 16.51 13.51L16.51 13.51L16.51 13.51Q16.17 13.22 16.10 12.77L16.10 12.77L16.10 12.77Q15.67 13.37 15.09 13.62L15.09 13.62L15.09 13.62Q14.50 13.87 13.71 13.87L13.71 13.87ZM14.56 12.21L14.56 12.21Q15.25 12.21 15.63 11.75L15.63 11.75L15.63 11.75Q16.02 11.28 16.02 10.58L16.02 10.58L16.02 10.47L15.19 10.46L15.19 10.46Q13.65 10.46 13.65 11.40L13.65 11.40L13.65 11.40Q13.65 11.77 13.91 11.99L13.91 11.99L13.91 11.99Q14.17 12.21 14.56 12.21L14.56 12.21ZM24.46 13.86L24.46 13.86Q23.55 13.86 23.04 13.57L23.04 13.57L23.04 13.57Q22.53 13.29 22.18 12.87L22.18 12.87L22.18 12.87Q22.09 13.27 21.75 13.54L21.75 13.54L21.75 13.54Q21.41 13.80 20.97 13.80L20.97 13.80L20.97 13.80Q20.48 13.80 20.13 13.45L20.13 13.45L20.13 13.45Q19.78 13.10 19.78 12.61L19.78 12.61L19.78 3.99L19.78 3.99Q19.78 3.46 20.17 3.07L20.17 3.07L20.17 3.07Q20.55 2.69 21.08 2.69L21.08 2.69L21.08 2.69Q21.62 2.69 22.00 3.07L22.00 3.07L22.00 3.07Q22.39 3.46 22.39 3.99L22.39 3.99L22.39 7.15L22.39 7.15Q23.07 5.91 24.60 5.91L24.60 5.91L24.60 5.91Q25.63 5.91 26.34 6.42L26.34 6.42L26.34 6.42Q27.05 6.93 27.40 7.79L27.40 7.79L27.40 7.79Q27.75 8.65 27.75 9.73L27.75 9.73L27.75 9.73Q27.75 10.99 27.31 11.93L27.31 11.93L27.31 11.93Q26.88 12.87 26.13 13.36L26.13 13.36L26.13 13.36Q25.38 13.86 24.46 13.86L24.46 13.86ZM23.72 12.11L23.72 12.11Q24.33 12.11 24.73 11.55L24.73 11.55L24.73 11.55Q25.13 10.99 25.13 9.87L25.13 9.87L25.13 9.87Q25.13 8.76 24.74 8.25L24.74 8.25L24.74 8.25Q24.35 7.73 23.74 7.73L23.74 7.73L23.74 7.73Q23.09 7.73 22.70 8.26L22.70 8.26L22.70 8.26Q22.32 8.79 22.32 9.87L22.32 9.87L22.32 9.87Q22.32 11.05 22.70 11.58L22.70 11.58L22.70 11.58Q23.09 12.11 23.72 12.11L23.72 12.11ZM29.67 4.98L29.67 4.98Q29.22 4.98 28.90 4.66L28.90 4.66L28.90 4.66Q28.57 4.34 28.57 3.89L28.57 3.89L28.57 3.89Q28.57 3.44 28.90 3.12L28.90 3.12L28.90 3.12Q29.22 2.80 29.67 2.80L29.67 2.80L30.31 2.80L30.31 2.80Q30.76 2.80 31.08 3.12L31.08 3.12L31.08 3.12Q31.40 3.44 31.40 3.89L31.40 3.89L31.40 3.89Q31.40 4.34 31.08 4.66L31.08 4.66L31.08 4.66Q30.76 4.98 30.31 4.98L30.31 4.98L29.67 4.98ZM29.99 13.80L29.99 13.80Q29.46 13.80 29.07 13.42L29.07 13.42L29.07 13.42Q28.69 13.03 28.69 12.50L28.69 12.50L28.69 7.25L28.69 7.25Q28.69 6.72 29.07 6.33L29.07 6.33L29.07 6.33Q29.46 5.95 29.99 5.95L29.99 5.95L29.99 5.95Q30.52 5.95 30.91 6.33L30.91 6.33L30.91 6.33Q31.29 6.72 31.29 7.25L31.29 7.25L31.29 12.50L31.29 12.50Q31.29 13.03 30.91 13.42L30.91 13.42L30.91 13.42Q30.52 13.80 29.99 13.80L29.99 13.80ZM35.62 13.86L35.62 13.86Q34.27 13.86 33.71 13.20L33.71 13.20L33.71 13.20Q33.15 12.53 33.17 11.13L33.17 11.13L33.18 7.78L32.79 7.78L32.79 7.78Q32.44 7.78 32.19 7.53L32.19 7.53L32.19 7.53Q31.93 7.28 31.93 6.93L31.93 6.93L31.93 6.93Q31.93 6.57 32.19 6.31L32.19 6.31L32.19 6.31Q32.44 6.06 32.79 6.06L32.79 6.06L33.26 6.06L33.32 5.03L33.32 5.03Q33.35 4.56 33.69 4.23L33.69 4.23L33.69 4.23Q34.03 3.91 34.51 3.91L34.51 3.91L34.51 3.91Q35 3.91 35.35 4.26L35.35 4.26L35.35 4.26Q35.70 4.61 35.70 5.10L35.70 5.10L35.70 6.06L36.53 6.06L36.53 6.06Q36.88 6.06 37.13 6.31L37.13 6.31L37.13 6.31Q37.38 6.57 37.38 6.92L37.38 6.92L37.38 6.92Q37.38 7.28 37.13 7.53L37.13 7.53L37.13 7.53Q36.88 7.78 36.53 7.78L36.53 7.78L35.76 7.78L35.76 10.91L35.76 10.91Q35.76 11.48 36.00 11.72L36.00 11.72L36.00 11.72Q36.25 11.96 36.75 11.96L36.75 11.96L36.75 11.96Q37.07 12.03 37.30 12.29L37.30 12.29L37.30 12.29Q37.52 12.54 37.52 12.89L37.52 12.89L37.52 12.89Q37.52 13.19 37.36 13.42L37.36 13.42L37.36 13.42Q37.20 13.65 36.95 13.76L36.95 13.76L36.95 13.76Q36.39 13.86 35.62 13.86L35.62 13.86ZM40.40 13.87L40.40 13.87Q39.69 13.87 39.09 13.60L39.09 13.60L39.09 13.60Q38.50 13.33 38.15 12.80L38.15 12.80L38.15 12.80Q37.80 12.28 37.80 11.55L37.80 11.55L37.80 11.55Q37.80 10.07 38.92 9.57L38.92 9.57L38.92 9.57Q40.04 9.07 41.75 9.07L41.75 9.07L41.75 9.07Q42.07 9.07 42.22 9.09L42.22 9.09L42.70 9.10L42.70 9.10Q42.70 8.62 42.63 8.34L42.63 8.34L42.63 8.34Q42.56 8.05 42.33 7.88L42.33 7.88L42.33 7.88Q42.10 7.71 41.64 7.71L41.64 7.71L41.64 7.71Q40.99 7.71 40.68 8.12L40.68 8.12L40.68 8.12Q40.33 8.60 39.83 8.60L39.83 8.60L39.83 8.60Q39.37 8.60 39.04 8.27L39.04 8.27L39.04 8.27Q38.71 7.94 38.71 7.46L38.71 7.46L38.71 7.46Q38.71 7.18 38.84 6.94L38.84 6.94L38.84 6.94Q38.96 6.69 39.20 6.54L39.20 6.54L39.20 6.54Q39.72 6.20 40.35 6.03L40.35 6.03L40.35 6.03Q40.99 5.87 41.66 5.87L41.66 5.87L41.66 5.87Q43.40 5.87 44.30 6.61L44.30 6.61L44.30 6.61Q45.21 7.35 45.21 9.04L45.21 9.04L45.19 11.03L45.19 11.03Q45.19 11.55 45.21 11.80L45.21 11.80L45.22 12.59L45.22 12.59Q45.22 13.08 44.86 13.44L44.86 13.44L44.86 13.44Q44.51 13.80 44.00 13.80L44.00 13.80L44.00 13.80Q43.54 13.80 43.20 13.51L43.20 13.51L43.20 13.51Q42.87 13.22 42.80 12.77L42.80 12.77L42.80 12.77Q42.36 13.37 41.78 13.62L41.78 13.62L41.78 13.62Q41.20 13.87 40.40 13.87L40.40 13.87ZM41.26 12.21L41.26 12.21Q41.94 12.21 42.33 11.75L42.33 11.75L42.33 11.75Q42.71 11.28 42.71 10.58L42.71 10.58L42.71 10.47L41.89 10.46L41.89 10.46Q40.35 10.46 40.35 11.40L40.35 11.40L40.35 11.40Q40.35 11.77 40.61 11.99L40.61 11.99L40.61 11.99Q40.87 12.21 41.26 12.21L41.26 12.21ZM49.42 13.86L49.42 13.86Q48.08 13.86 47.52 13.20L47.52 13.20L47.52 13.20Q46.96 12.53 46.97 11.13L46.97 11.13L46.98 7.78L46.59 7.78L46.59 7.78Q46.24 7.78 45.99 7.53L45.99 7.53L45.99 7.53Q45.74 7.28 45.74 6.93L45.74 6.93L45.74 6.93Q45.74 6.57 45.99 6.31L45.99 6.31L45.99 6.31Q46.24 6.06 46.59 6.06L46.59 6.06L47.07 6.06L47.12 5.03L47.12 5.03Q47.15 4.56 47.49 4.23L47.49 4.23L47.49 4.23Q47.84 3.91 48.31 3.91L48.31 3.91L48.31 3.91Q48.80 3.91 49.15 4.26L49.15 4.26L49.15 4.26Q49.50 4.61 49.50 5.10L49.50 5.10L49.50 6.06L50.33 6.06L50.33 6.06Q50.68 6.06 50.93 6.31L50.93 6.31L50.93 6.31Q51.18 6.57 51.18 6.92L51.18 6.92L51.18 6.92Q51.18 7.28 50.93 7.53L50.93 7.53L50.93 7.53Q50.68 7.78 50.33 7.78L50.33 7.78L49.56 7.78L49.56 10.91L49.56 10.91Q49.56 11.48 49.80 11.72L49.80 11.72L49.80 11.72Q50.05 11.96 50.55 11.96L50.55 11.96L50.55 11.96Q50.88 12.03 51.10 12.29L51.10 12.29L51.10 12.29Q51.32 12.54 51.32 12.89L51.32 12.89L51.32 12.89Q51.32 13.19 51.16 13.42L51.16 13.42L51.16 13.42Q51.00 13.65 50.75 13.76L50.75 13.76L50.75 13.76Q50.19 13.86 49.42 13.86L49.42 13.86Z"></path></g><defs data-v-423bf9ae=""><linearGradient data-v-423bf9ae="" gradientTransform="rotate(25)" id="cc7b9678-bee5-4c47-b209-8e23e691d138" x1="0%" y1="0%" x2="100%" y2="0%"><stop data-v-423bf9ae="" offset="0%" style="stop-color: rgb(13, 124, 233); stop-opacity: 1;"></stop><stop data-v-423bf9ae="" offset="100%" style="stop-color: rgb(21, 207, 241); stop-opacity: 1;"></stop></linearGradient></defs><g data-v-423bf9ae="" id="36b1c7c2-9949-43b1-a3af-86c3ec21fec5" transform="matrix(1.0668446011013455,0,0,1.0668446011013455,0.7895940084208064,0.7834516263752036)" stroke="none" fill="url(#cc7b9678-bee5-4c47-b209-8e23e691d138)"><path d="M46.368.452l-7.584 6.24a23.345 23.345 0 0 1 1.916 3.604l8.212-6.756c.852-.7.977-1.96.271-2.812a1.998 1.998 0 0 0-2.815-.276zM20.52 26.904a2 2 0 0 1-1.612.424 2.014 2.014 0 0 1-1.38-.948L10.7 14.88a1.998 1.998 0 0 1 .7-2.74 2 2 0 0 1 2.744.7l5.636 9.496L35.636 9.288C32.252 3.744 26.204 0 19.248 0 8.632 0-.004 8.636-.004 19.252s8.636 19.252 19.252 19.252c10.612 0 19.248-8.636 19.248-19.252 0-2.188-.444-4.252-1.12-6.216L20.52 26.904zM46.368 57.952l-7.584 6.239a23.437 23.437 0 0 1 1.916 3.604l8.212-6.756c.852-.7.977-1.96.271-2.812a1.991 1.991 0 0 0-2.815-.275zM20.52 84.4a2.02 2.02 0 0 1-1.616.428 1.993 1.993 0 0 1-1.376-.944l-6.828-11.5a2 2 0 0 1 .7-2.743 2 2 0 0 1 2.744.695l5.636 9.5 15.856-13.048c-3.384-5.548-9.432-9.284-16.388-9.284-10.616 0-19.252 8.637-19.252 19.252 0 10.612 8.636 19.252 19.252 19.252 10.612 0 19.248-8.636 19.248-19.252 0-2.188-.444-4.252-1.12-6.22L20.52 84.4zM76.752 38.496C87.368 38.496 96 29.86 96 19.244 96 8.632 87.368-.008 76.748-.008c-10.607 0-19.252 8.636-19.252 19.252s8.645 19.252 19.256 19.252zM76.752 57.496c-10.607 0-19.252 8.636-19.252 19.252C57.5 87.359 66.132 96 76.752 96S96 87.364 96 76.752c0-10.62-8.632-19.256-19.248-19.256z"></path></g><!----></svg>